<?xml version="1.0" encoding="UTF-8"?>
<svg xmlns="http://www.w3.org/2000/svg" xmlns:xlink="http://www.w3.org/1999/xlink" viewBox="0 0 50 50" width="50px" height="50px">
<g id="surface18847802">
<path style="fill-rule:nonzero;fill:rgb(100%,100%,100%);fill-opacity:1;stroke-width:10;stroke-linecap:butt;stroke-linejoin:round;stroke:rgb(80.000001%,80.000001%,80.000001%);stroke-opacity:1;stroke-miterlimit:10;" d="M 158.237266 30.966163 L 158.237266 141.033842 C 158.237266 150.53424 150.53424 158.237266 141.033842 158.237266 L 30.966163 158.237266 C 21.465765 158.237266 13.762739 150.53424 13.762739 141.033842 L 13.762739 30.966163 C 13.762739 21.465765 21.465765 13.762739 30.966163 13.762739 L 141.033842 13.762739 C 150.53424 13.762739 158.237266 21.465765 158.237266 30.966163 Z M 127.282515 51.593154 C 127.282515 51.593154 123.502326 48.155323 113.516922 48.155323 C 99.765595 48.155323 92.875666 58.483083 92.875666 72.23441 L 92.875666 82.562171 L 79.124339 82.562171 L 79.124339 99.765595 L 92.875666 99.765595 L 92.875666 151.361602 L 110.07909 151.361602 L 110.07909 99.765595 L 123.844683 99.765595 L 127.282515 82.562171 L 110.07909 82.562171 L 110.07909 72.23441 C 110.07909 67.084795 113.031917 65.358747 120.406851 65.358747 L 127.282515 65.358747 Z M 127.282515 51.593154 " transform="matrix(0.273837,0,0,0.273837,1.45,1.45)"/>
<path style=" stroke:none;fill-rule:nonzero;fill:rgb(100%,100%,100%);fill-opacity:1;" d="M 40.070312 5.21875 L 9.929688 5.21875 C 7.328125 5.21875 5.21875 7.328125 5.21875 9.929688 L 5.21875 40.070312 C 5.21875 42.671875 7.328125 44.78125 9.929688 44.78125 L 40.070312 44.78125 C 42.671875 44.78125 44.78125 42.671875 44.78125 40.070312 L 44.78125 9.929688 C 44.78125 7.328125 42.671875 5.21875 40.070312 5.21875 Z M 36.304688 19.347656 L 34.421875 19.347656 C 32.402344 19.347656 31.59375 19.820312 31.59375 21.230469 L 31.59375 24.058594 L 36.304688 24.058594 L 35.363281 28.769531 L 31.59375 28.769531 L 31.59375 42.898438 L 26.882812 42.898438 L 26.882812 28.769531 L 23.117188 28.769531 L 23.117188 24.058594 L 26.882812 24.058594 L 26.882812 21.230469 C 26.882812 17.464844 28.769531 14.636719 32.535156 14.636719 C 35.269531 14.636719 36.304688 15.578125 36.304688 15.578125 Z M 36.304688 19.347656 "/>
</g>
</svg>
