<?xml version="1.0" encoding="UTF-8"?>
<svg xmlns="http://www.w3.org/2000/svg" xmlns:xlink="http://www.w3.org/1999/xlink" viewBox="0 0 32 32" width="32px" height="32px">
<g id="surface18786252">
<path style="fill-rule:evenodd;fill:rgb(100%,100%,100%);fill-opacity:1;stroke-width:10;stroke-linecap:butt;stroke-linejoin:round;stroke:rgb(80.000001%,80.000001%,80.000001%);stroke-opacity:1;stroke-miterlimit:10;" d="M 197.754854 112.682569 C 197.725996 159.201064 159.86479 197.062271 113.346295 197.062271 L 113.317437 197.062271 C 99.206058 197.033413 85.296681 193.512783 73.003332 186.760098 L 28.245153 198.53401 L 40.221068 154.785847 C 32.833515 142.001919 28.937736 127.486532 28.966593 112.624854 C 28.966593 66.106359 66.856658 28.245153 113.346295 28.245153 C 135.912959 28.245153 157.123315 37.046729 173.052725 53.004997 C 188.982135 68.934407 197.754854 90.115905 197.754854 112.682569 Z M 183.499186 112.682569 C 183.499186 93.925112 176.198207 76.321959 162.952556 63.076309 C 149.706905 49.830658 132.13261 42.50082 113.375153 42.50082 C 74.677075 42.50082 43.193403 73.955634 43.193403 112.624854 C 43.193403 125.841647 46.88718 138.769864 53.928441 149.937766 L 55.602183 152.592668 L 48.503207 178.477959 L 75.052224 171.523271 L 77.620553 173.023868 C 88.384447 179.401403 100.764369 182.806603 113.317437 182.806603 L 113.346295 182.806603 C 152.015515 182.806603 183.499186 151.35179 183.499186 112.682569 Z M 155.882437 132.73862 C 156.401874 133.633207 156.401874 137.84642 154.670417 142.781075 C 152.881244 147.715729 144.483674 152.188661 140.414749 152.823529 C 136.778688 153.342966 132.161468 153.544969 127.111383 151.9578 C 124.052475 150.976641 120.156695 149.678047 115.135468 147.513725 C 93.95397 138.394715 80.131166 117.068929 79.092292 115.71262 C 78.053417 114.298597 70.492719 104.256142 70.492719 93.867397 C 70.492719 83.507509 75.917953 78.399709 77.851414 76.321959 C 79.784875 74.186495 82.064627 73.667058 83.478651 73.667058 C 84.892675 73.667058 86.306698 73.667058 87.518719 73.724773 C 88.817312 73.811346 90.54877 73.205336 92.25137 77.331976 C 94.011685 81.54519 98.253756 91.962793 98.773193 93.001668 C 99.292631 94.040542 99.638922 95.28142 98.946339 96.695444 C 98.253756 98.109468 97.878607 98.975197 96.839732 100.187217 C 95.772 101.428095 94.617695 102.957549 93.665393 103.909851 C 92.626519 104.948725 91.501071 106.074173 92.741949 108.209637 C 93.95397 110.287386 98.224898 117.213217 104.487003 122.782739 C 112.538281 129.997146 119.319824 132.219183 121.455288 133.286915 C 123.533037 134.32579 124.773915 134.123786 125.985936 132.73862 C 127.226814 131.353454 131.266881 126.591946 132.680905 124.485339 C 134.066071 122.378732 135.480095 122.725024 137.413556 123.417607 C 139.347017 124.11019 149.706905 129.21799 151.813512 130.256864 C 153.948976 131.353454 155.334142 131.872891 155.882437 132.73862 Z M 155.882437 132.73862 " transform="matrix(0.135363,0,0,0.135363,0.704,0.704)"/>
<path style=" stroke:none;fill-rule:evenodd;fill:rgb(100%,100%,100%);fill-opacity:1;" d="M 24.128906 7.878906 C 21.972656 5.71875 19.101562 4.527344 16.046875 4.527344 C 9.753906 4.527344 4.625 9.652344 4.625 15.949219 C 4.621094 17.960938 5.148438 19.925781 6.148438 21.65625 L 4.527344 27.578125 L 10.585938 25.984375 C 12.25 26.898438 14.132812 27.375 16.042969 27.378906 L 16.046875 27.378906 C 22.34375 27.378906 27.46875 22.253906 27.472656 15.957031 C 27.472656 12.902344 26.285156 10.035156 24.128906 7.878906 Z M 16.046875 25.449219 L 16.042969 25.449219 C 14.34375 25.449219 12.667969 24.988281 11.210938 24.125 L 10.863281 23.921875 L 7.269531 24.863281 L 8.230469 21.359375 L 8.003906 21 C 7.050781 19.488281 6.550781 17.738281 6.550781 15.949219 C 6.550781 10.714844 10.8125 6.457031 16.050781 6.457031 C 18.589844 6.457031 20.96875 7.449219 22.761719 9.242188 C 24.554688 11.035156 25.542969 13.417969 25.542969 15.957031 C 25.542969 21.191406 21.28125 25.449219 16.046875 25.449219 Z M 21.253906 18.335938 C 20.96875 18.195312 19.566406 17.503906 19.304688 17.410156 C 19.042969 17.316406 18.851562 17.269531 18.664062 17.554688 C 18.472656 17.839844 17.925781 18.484375 17.757812 18.671875 C 17.59375 18.859375 17.425781 18.886719 17.144531 18.746094 C 16.855469 18.601562 15.9375 18.300781 14.847656 17.324219 C 14 16.570312 13.421875 15.632812 13.257812 15.351562 C 13.089844 15.0625 13.242188 14.910156 13.382812 14.769531 C 13.511719 14.640625 13.667969 14.433594 13.8125 14.265625 C 13.953125 14.101562 14.003906 13.984375 14.097656 13.792969 C 14.191406 13.601562 14.144531 13.433594 14.074219 13.292969 C 14.003906 13.152344 13.429688 11.742188 13.191406 11.171875 C 12.960938 10.613281 12.726562 10.695312 12.550781 10.683594 C 12.386719 10.675781 12.195312 10.675781 12.003906 10.675781 C 11.8125 10.675781 11.503906 10.746094 11.242188 11.035156 C 10.980469 11.316406 10.246094 12.007812 10.246094 13.410156 C 10.246094 14.816406 11.269531 16.175781 11.410156 16.367188 C 11.550781 16.550781 13.421875 19.4375 16.289062 20.671875 C 16.96875 20.964844 17.496094 21.140625 17.910156 21.273438 C 18.59375 21.488281 19.21875 21.460938 19.710938 21.390625 C 20.261719 21.304688 21.398438 20.699219 21.640625 20.03125 C 21.875 19.363281 21.875 18.792969 21.804688 18.671875 C 21.730469 18.554688 21.542969 18.484375 21.253906 18.335938 Z M 21.253906 18.335938 "/>
</g>
</svg>
